<?xml version="1.0" standalone="no"?>
<!DOCTYPE svg PUBLIC "-//W3C//DTD SVG 20010904//EN"
 "http://www.w3.org/TR/2001/REC-SVG-20010904/DTD/svg10.dtd">
<svg version="1.0" xmlns="http://www.w3.org/2000/svg"
 width="2000.000000pt" height="2000.000000pt" viewBox="0 0 2000.000000 2000.000000"
 preserveAspectRatio="xMidYMid meet">

<g transform="translate(0.000000,2000.000000) scale(0.100000,-0.100000)"
fill="#000000" stroke="none">
<path d="M9805 19993 c-1261 -20 -2567 -299 -3725 -796 -994 -426 -1862 -975
-2695 -1703 -196 -171 -658 -629 -827 -819 -928 -1046 -1606 -2213 -2039
-3505 -284 -851 -446 -1703 -499 -2634 -22 -389 -11 -1002 25 -1426 184 -2119
1043 -4114 2473 -5740 183 -209 668 -692 877 -875 1620 -1415 3565 -2253 5690
-2449 568 -53 1255 -53 1835 0 765 69 1522 227 2245 468 2176 726 4046 2188
5277 4126 850 1339 1369 2857 1512 4430 55 596 55 1264 0 1860 -273 2992
-1897 5715 -4406 7387 -1709 1139 -3663 1709 -5743 1676z m-3277 -5067 c495
-107 863 -478 969 -979 24 -114 24 -352 -1 -467 -102 -474 -439 -832 -898
-955 -683 -183 -1386 260 -1525 962 -23 121 -23 349 1 461 114 531 522 917
1051 992 86 13 317 4 403 -14z m6122 -3326 c640 -31 1091 -159 1448 -410 159
-112 351 -322 461 -505 179 -298 303 -721 355 -1215 33 -311 36 -482 36 -2447
l0 -1973 -1010 0 -1010 0 0 1693 c0 1951 -5 2086 -76 2407 -96 426 -289 661
-619 752 -71 20 -105 22 -305 23 -179 0 -243 -4 -315 -18 -644 -131 -1012
-603 -1085 -1392 -6 -69 -10 -730 -10 -1787 l0 -1678 -1010 0 -1010 0 0 3225
0 3225 960 0 960 0 1 -467 c0 -366 3 -464 12 -449 117 187 275 368 437 499
360 291 858 481 1357 516 157 12 197 12 423 1z m-5352 -3322 l-3 -3223 -1010
0 -1010 0 -3 3223 -2 3222 1015 0 1015 0 -2 -3222z"/>
</g>
</svg>
